<svg version="1.2" xmlns="http://www.w3.org/2000/svg" viewBox="0 0 914 914" width="16" height="16">
	<style>
		.s0 { fill: #d8d7f7 }
		.s1 { fill: #00a9eb }
	</style>
	<path id="Layer" fill-rule="evenodd" class="s0" d="m294.8 182.1h4.4c3.7 0 7.4 0.7 10.8 2.1 3.4 1.4 6.5 3.5 9.1 6.1 2.6 2.6 4.7 5.7 6.1 9.2 1.4 3.4 2.2 7 2.2 10.7v173.3l-60.7 32.3v-205.6c0-3.7 0.7-7.3 2.1-10.7 1.5-3.5 3.5-6.6 6.1-9.2 2.7-2.6 5.8-4.7 9.2-6.1 3.4-1.4 7-2.1 10.7-2.1z"/>
	<path id="Layer" fill-rule="evenodd" class="s0" d="m423.6 274.4h4.4c3.7 0 7.4 0.7 10.8 2.2 3.4 1.4 6.5 3.5 9.1 6.1 2.6 2.6 4.7 5.7 6.1 9.1 1.4 3.4 2.1 7.1 2.2 10.8v149l-60.8-51.9v-97.1c0.1-3.7 0.8-7.4 2.2-10.8 1.4-3.4 3.5-6.5 6.1-9.1 2.6-2.6 5.7-4.7 9.1-6.1 3.5-1.5 7.1-2.2 10.8-2.2z"/>
	<path id="Layer" fill-rule="evenodd" class="s0" d="m542.7 87.9h4.4q5.5 0 10.8 2.1c3.4 1.4 6.5 3.5 9.1 6.1 2.6 2.6 4.7 5.7 6.1 9.1q2.1 5.3 2.1 10.8v330.3l-60.7 28.2v-358.5c0.1-3.7 0.8-7.4 2.2-10.8 1.4-3.4 3.5-6.5 6.1-9.1 2.6-2.6 5.7-4.7 9.1-6.1 3.5-1.4 7.1-2.2 10.8-2.2z"/>
	<path id="Layer" fill-rule="evenodd" class="s0" d="m669.1 265.7h4.4c3.6 0 7.3 0.7 10.7 2.1 3.4 1.5 6.5 3.5 9.1 6.1 2.7 2.7 4.7 5.8 6.2 9.2 1.4 3.4 2.1 7 2.1 10.7v90.9l-60.7 28.2v-119c0-3.7 0.8-7.4 2.2-10.8 1.4-3.4 3.5-6.5 6.1-9.1 2.6-2.6 5.7-4.7 9.1-6.1 3.4-1.5 7.1-2.2 10.8-2.2z"/>
	<path id="Layer" fill-rule="evenodd" class="s1" d="m5.3 606.5l342.7-182.2 9.7-5.2 8.4 7.2 125.7 107.4 323.6-150.2-15.4-36.9 55.3 7 55.3 7-33.7 44.4-33.8 44.4-15.1-36.1-126.4 58.7v157.8c0 3.7-0.7 7.3-2.1 10.7-1.5 3.4-3.5 6.5-6.2 9.2-2.6 2.6-5.7 4.6-9.1 6.1-3.4 1.4-7.1 2.1-10.7 2.1h-4.4c-3.7 0-7.4-0.7-10.8-2.1-3.4-1.5-6.5-3.5-9.1-6.2-2.6-2.6-4.7-5.7-6.1-9.1-1.4-3.4-2.2-7-2.2-10.7v-129.6l-65.7 30.4v294.5c0 3.7-0.7 7.4-2.1 10.8-1.4 3.4-3.5 6.5-6.1 9.1-2.6 2.6-5.7 4.7-9.1 6.1-3.5 1.5-7.1 2.2-10.8 2.2h-4.4c-3.7 0-7.4-0.7-10.8-2.2-3.4-1.4-6.5-3.5-9.1-6.1-2.6-2.6-4.7-5.7-6.1-9.1-1.4-3.4-2.1-7.1-2.2-10.8v-266.3l-18.5 8.7-9.4 4.3-7.9-6.7-22.5-19.3v75.2c0 3.7-0.8 7.4-2.2 10.8-1.4 3.4-3.5 6.5-6.1 9.1-2.6 2.6-5.7 4.7-9.1 6.1-3.4 1.4-7.1 2.2-10.8 2.2h-4.4c-3.7 0-7.3-0.8-10.8-2.2-3.4-1.4-6.5-3.5-9.1-6.1-2.6-2.6-4.7-5.7-6.1-9.1-1.4-3.4-2.1-7.1-2.1-10.8v-127.1l-42-35.9-26.1 13.9v241.5c0 3.7-0.7 7.3-2.2 10.7-1.4 3.4-3.5 6.5-6.1 9.1-2.6 2.7-5.7 4.7-9.1 6.2-3.4 1.4-7.1 2.1-10.8 2.1h-4.3c-3.7 0-7.4-0.7-10.8-2.1-3.4-1.5-6.5-3.5-9.1-6.2-2.6-2.6-4.7-5.7-6.1-9.1-1.5-3.4-2.2-7-2.2-10.7v-209.2l-60.9 32.4v93.1c0 3.7-0.7 7.4-2.2 10.8-1.4 3.4-3.5 6.5-6.1 9.1-2.6 2.6-5.7 4.7-9.1 6.1-3.4 1.5-7.1 2.2-10.8 2.2h-4.3c-3.7 0-7.4-0.7-10.8-2.2-3.4-1.4-6.5-3.5-9.1-6.1-2.7-2.6-4.7-5.7-6.2-9.1-1.4-3.4-2.1-7.1-2.1-10.8v-60.9l-124.6 66.3z"/>
	<path id="Layer" fill-rule="evenodd" class="s0" d="m173.3 265.7h4.3c3.7 0 7.4 0.7 10.8 2.1 3.4 1.5 6.5 3.5 9.1 6.2 2.6 2.6 4.7 5.7 6.1 9.1 1.5 3.4 2.2 7 2.2 10.7v154.4l-60.7 32.3v-186.7c0-3.7 0.7-7.3 2.1-10.7 1.5-3.4 3.5-6.5 6.2-9.1 2.6-2.7 5.7-4.7 9.1-6.2 3.4-1.4 7.1-2.1 10.7-2.1z"/>
</svg>
